<?xml version="1.0" encoding="utf-8"?>
<!-- Generator: Adobe Illustrator 23.0.3, SVG Export Plug-In . SVG Version: 6.00 Build 0)  -->
<svg version="1.1" id="Layer_1" xmlns="http://www.w3.org/2000/svg" xmlns:xlink="http://www.w3.org/1999/xlink" x="0px" y="0px"
	 viewBox="0 0 512 512" style="enable-background:new 0 0 512 512;" xml:space="preserve">
<style type="text/css">
	.st0{fill:#FFFFFF;}
</style>
<path class="st0" d="M180.8,23l-17.7,6l25.3,75.4l17.7-6L180.8,23L180.8,23z M254.7,101.5L150,137.2l10.2,29.9
	c8.3-9.8,17.8-17.5,28.1-23.4c7.2,27.5,16.7,54.1,27.8,79.9c13-5.6,26.4-10.2,39.9-13.7c-7-26.7-15.8-53.2-26.3-79.3
	c11.3-1.2,23.1-0.9,35.2,0.9L254.7,101.5L254.7,101.5z M446.3,189.8c-19.5-0.1-42.3,9.8-60.9,28.4c-5.8,5.8-10.7,12-14.8,18.3
	c-28.7-17.3-69.8-18.3-110.2-8c0-0.1,0-0.2-0.1-0.3c-12.4,3.1-24.7,7.2-36.7,12.3l0.2,0.4c-87.3,37.5-151.9,124-48,202.1H46
	l-28.8,52h279.9l-96.3-112.4c26.4-29.1,73.4-47.6,105.6-49.1c15,49.1,39.4,123.5,78.1,161.4h66.3c-46.9-50.7-83.3-118.7-89.2-195.8
	c1.8,3.5,4,6.8,6.8,9.6c20.3,20.3,60.9,12.7,90.7-17.1c29.8-29.8,37.4-70.3,17.1-90.7C468.5,193.5,458,189.8,446.3,189.8
	L446.3,189.8z"/>
</svg>
