<?xml version="1.0" encoding="utf-8"?>
<!-- Generator: Adobe Illustrator 23.0.3, SVG Export Plug-In . SVG Version: 6.00 Build 0)  -->
<svg version="1.1" id="Layer_1" xmlns="http://www.w3.org/2000/svg" xmlns:xlink="http://www.w3.org/1999/xlink" x="0px" y="0px"
	 viewBox="0 0 512 512" style="enable-background:new 0 0 512 512;" xml:space="preserve">
<style type="text/css">
	.st0{fill:#FFFFFF;}
</style>
<path class="st0" d="M174.7,61.1l-30.6,17.7L43.5,136.8l-10.1,5.8l-10.7,6.2l-5.5,3.2l65.4,113.4l2-1.2l5-2.9l9.2-5.3v0l55.9-32.4
	l-8.6,195.9l-0.2,3.2l-1.1,24h222.1l-0.1-2.7l-0.3-7.3l-0.8-17.2L357.1,224l55.2,32.1l0,0l13.3,7.7l0.8,0.5l2.1,1.2L493.9,152
	l-5.5-3.2l-10.7-6.2l-94.4-54.5L367,78.7l-22.4-12.9l-8.2-4.7c-11.5,23.5-43.6,40.6-81.2,40.6C217.7,101.7,186.2,84.6,174.7,61.1
	L174.7,61.1L174.7,61.1z M157.4,92.7c38.3,35.4,91.1,46.5,137,34.6l-7.7,14.3l13.1,24.3l13.1-24.3l-9.2-17
	c19-6.4,36.5-16.8,50.9-31.3l113.8,65.7l-46.7,81L392,222.6l12.2-22.5L391,175.9l-13.1,24.3l11.3,20.8l-19.3-11.2l-33.6-19.9
	l0.5,8.5l-12.9-23.9l-13.2,24.3l13.2,24.3l13-24l1.5,24.6h0l2.2,49.4l-10.7-19.7l-13.1,24.3l9.9,18.3h-60.2l9-16.6l-13.1-24.3
	l-13.1,24.3l9,16.6h-88l3.4-77.3h0l1.2-28.9l-33.5,19.9l-51.8,30.1l-46.7-81L157.4,92.7L157.4,92.7z M161.9,109.4l-13.1,24.3
	l13.1,24.3l13.1-24.3L161.9,109.4z M432,149.1l-13.1,24.3l13.1,24.3l13.1-24.3L432,149.1L432,149.1z M128.7,166.7L115.6,191
	l13.1,24.3l13.1-24.3L128.7,166.7L128.7,166.7z M242.5,204.9l-13.1,24.3l13.1,24.3l13.1-24.3L242.5,204.9L242.5,204.9z M298.4,224.7
	L285.3,249l13.1,24.2l13.1-24.3L298.4,224.7L298.4,224.7z M198.7,233.9l-13.1,24.3l13.1,24.3l13.2-24.3L198.7,233.9L198.7,233.9z
	 M340.9,281.5l0.6,14.5h-8.5L340.9,281.5L340.9,281.5z M169.5,313h172.8l0.9,20H168.6L169.5,313L169.5,313z M167.8,349.9H207
	l-10.8,20l13.2,24.3l13.1-24.3l-10.8-20h120.6l-11.6,21.4l13.1,24.3l11.2-20.8l2,44.8h-53.4l8.1-15l-13.1-24.3l-13.1,24.3l8.1,15
	H164.8L167.8,349.9z M335.3,349.9h8.6l0.8,17.3L335.3,349.9L335.3,349.9z"/>
</svg>
