<?xml version="1.0" encoding="utf-8"?>
<!-- Generator: Adobe Illustrator 23.0.3, SVG Export Plug-In . SVG Version: 6.00 Build 0)  -->
<svg version="1.1" id="Layer_1" xmlns="http://www.w3.org/2000/svg" xmlns:xlink="http://www.w3.org/1999/xlink" x="0px" y="0px"
	 viewBox="0 0 512 512" style="enable-background:new 0 0 512 512;" xml:space="preserve">
<style type="text/css">
	.st0{fill:#FFFFFF;}
</style>
<path class="st0" d="M200.1,29.7c-31,17.5-57,30-80.6,32.4c-8.1,0.8-15.9,0.2-23.2-1.9c-14.3,19.6-15.9,46-8.9,72
	c5.7,20.9,17.1,40.9,30.7,55.2c0.5-7.1,1.4-14.1,2.6-20.6c3.4-18.9,8.7-34.9,21.3-43.3c6.3-4.2,15-5.3,22.7-2.4
	c5.7,2.2,11,6,16.3,11.5l58.8-34.1L200.1,29.7L200.1,29.7z M312.4,29.7l-39.6,68.9l58.8,34c5.3-5.4,10.6-9.3,16.3-11.5
	c7.7-2.9,16.4-1.8,22.7,2.4c12.6,8.4,17.9,24.4,21.3,43.3c1.2,6.5,2,13.4,2.6,20.6c13.6-14.3,25-34.3,30.7-55.2
	c7-26,5.4-52.4-8.9-72c-7.4,2.1-15.2,2.7-23.2,1.9C369.4,59.7,343.3,47.2,312.4,29.7L312.4,29.7z M61,34.2
	c-22.2,15-34.3,33.9-39.4,55c-5.6,23.4-2.3,49.9,7.8,75.6c17.6,44.8,55.8,86.3,97.3,104.5c-5.7-17.6-8.7-37.6-9.3-57.3
	c-22.4-16.9-40-44.8-48.2-75c-7.8-28.7-6.7-60.2,9.8-84.9C72.5,47.6,66.4,41.6,61,34.2L61,34.2z M451.4,34.2
	c-5.4,7.5-11.5,13.4-18.1,17.9c16.5,24.8,17.5,56.3,9.8,84.9c-8.2,30.1-25.7,58.1-48.2,75c-0.6,19.6-3.6,39.7-9.3,57.3
	c41.5-18.2,79.8-59.8,97.3-104.5c10.1-25.7,13.4-52.2,7.8-75.6C485.7,68,473.6,49.1,451.4,34.2L451.4,34.2z M236,122.3l-29.2,16.9
	c52.9,100.2,83.6,209.8,152.7,295.7l33.5-25.2c-42.8-47.3-67.3-93.2-88.5-140.5C283.7,222.9,265.6,175.2,236,122.3L236,122.3z
	 M276.5,122.3c-3.4,6-6.6,11.9-9.6,17.8c6.9,13.4,13,26.5,18.9,39.3c6.4-13.5,13-26.9,20-40.2L276.5,122.3L276.5,122.3z
	 M226.8,225.8c-6.3,14.7-12.5,29.1-18.9,43.4c-21.2,47.3-45.8,93.1-88.5,140.5l33.5,25.2c39.8-49.4,66.9-106.8,92.8-165.6
	C239.4,254.8,233.1,240.3,226.8,225.8L226.8,225.8z M99,417.7l-17.4,23.1l50.6,38l17.4-23.1L99,417.7L99,417.7z M413.5,417.7
	l-50.6,38l17.4,23.1l50.6-38L413.5,417.7L413.5,417.7z"/>
</svg>
