<?xml version="1.0" encoding="utf-8"?>
<!-- Generator: Adobe Illustrator 23.0.3, SVG Export Plug-In . SVG Version: 6.00 Build 0)  -->
<svg version="1.1" id="Layer_1" xmlns="http://www.w3.org/2000/svg" xmlns:xlink="http://www.w3.org/1999/xlink" x="0px" y="0px"
	 viewBox="0 0 512 512" style="enable-background:new 0 0 512 512;" xml:space="preserve">
<style type="text/css">
	.st0{fill:#FFFFFF;}
</style>
<path class="st0" d="M257.6,20.7c-7.1,0-14.2,0.4-21.5,1.3c-31.2,3.9-59.1,16.3-82.6,39.5c-18.6,18.3-30.9,40.8-33.8,68.3
	c-3.4,33,7,61.2,28.1,84.2c6.8,7.4,9.8,14.6,9.6,25c-0.3,16.4,1,32.9,1.6,50.3c21-12.4,41.2-24.4,61.7-36.5
	c12.2,21.4,24.1,42.3,36.5,64c12.1-21.5,23.9-42.3,35.8-63.2c19.8,11.8,39.2,23.5,59.4,35.6c0.5-16.9,1.7-32.8,1.2-48.6
	c-0.4-11.1,1.8-19.7,10.3-26.2c2.7-2.1,4.7-5.4,6.8-8.3c20.6-28.6,27.7-60.3,17.2-95.5c-9.8-32.5-30.8-54.7-57.7-70.4
	C307.3,26.8,282.9,20.8,257.6,20.7L257.6,20.7z M340.4,125.9c17.9-0.1,26.2,11.1,22.4,30.5c-4.4,22.4-22.9,38.7-42.7,37.7
	c-21.4-1.1-38.7-18.8-41-41.9c-0.2-1.8,0.4-4.6,1.6-5.5C291.4,138,326.4,126,340.4,125.9z M175.3,126c13.7,0.9,29.5,7.5,45.1,14.9
	c2.3,1.1,4.4,2.8,6.8,3.5c5.8,1.7,6.1,6.1,5.3,11.3c-3.8,22.2-23,39.5-42.8,38.4c-22.4-1.2-39.6-19.3-41.2-43.4
	C147.3,134.1,155.2,125.7,175.3,126L175.3,126z M255.9,182.5c7.4,18.2,14.4,35.2,21.6,52.9h-43.2
	C241.5,217.9,248.5,200.8,255.9,182.5L255.9,182.5z M239.7,324.3c-0.1,0.3-0.3,0.6-0.4,1c-2.9,8-6.2,15.9-10,23.5
	c-8.3,16.8-17.3,33.4-25.7,50.1c-6.6,13.1-10.3,26.8-7.7,41.8c5.7,32.6,36.7,54.8,69.6,49.8c39.9-6,59.5-41.1,48.6-74.9
	c-4.4-13.6-11.3-26.5-17.9-39.2c-8.5-16.1-16.5-32.3-23.1-49.1c-2.3,4.2-4.7,8.3-7.1,12.5l-8.7,15.3l-8.7-15.3
	C245.6,334.7,242.7,329.5,239.7,324.3L239.7,324.3z M239.8,365.3c3.7,0,3.7,27.6,1.6,40c-2.2,12.6,0.1,24.1,10.5,32.7
	c15,12.5,35.4,9.7,46.7-6.4c0.5-0.7,1-1.4,1.5-2.1c0.4,0.1,0.8,0.2,1.2,0.2c-0.9,4.8-1.2,9.6-2.7,14.3c-6.3,20.7-25.5,33.1-48,31.2
	c-19.4-1.6-35.8-17.8-39.2-38c-1.8-10.6,1.2-20,5.7-29.2c6.6-13.6,14-26.8,20.6-40.4C238.4,366,239.2,365.3,239.8,365.3L239.8,365.3
	z"/>
</svg>
