<?xml version="1.0" encoding="utf-8"?>
<!-- Generator: Adobe Illustrator 23.0.3, SVG Export Plug-In . SVG Version: 6.00 Build 0)  -->
<svg version="1.1" id="Layer_1" xmlns="http://www.w3.org/2000/svg" xmlns:xlink="http://www.w3.org/1999/xlink" x="0px" y="0px"
	 viewBox="0 0 512 512" style="enable-background:new 0 0 512 512;" xml:space="preserve">
<style type="text/css">
	.st0{fill-rule:evenodd;clip-rule:evenodd;fill:#FFFFFF;}
</style>
<path class="st0" d="M84.6,20.3c46.3,37.5,62.3,65.6,53.5,93.1c-37.6-29.2-77.3-46-117.4-60.5v36.6c36.1,8.9,71.6,21.1,104.8,46.5
	c-13.1,16.6-34.4,33.9-62.8,53.7l82,35.4c-0.5,3.4-0.6,6.9-0.5,10.4c0.6,15.1,7.2,28,16.3,38.9c7.2,8.6,15.9,16.2,25.1,23.5
	l-63.9,46.6l-101-58.7v45.7c112.4,11.5,144.1,112.5,0,135.8v26.5h22.8l115-54.8c-46.4-55.1-3.4-101,44.4-127.9
	c20.2,15.4,39.5,30.8,47.8,48.9l8.5,18.4l8.5-18.4c3.8-8.2,9.8-15.8,17.1-23.1l15.3,115.5c49-28.4,133,7,141.4,41.4h52.9v-4.7
	L425.4,406c-66.4,44.2-111.6-5.5-118.1-88.4c5.9-4.6,12.1-9.3,18.2-13.9c10.5-8,20.7-16.2,29.2-25.5c35.5,15.5,46.5,41.6,24.9,79.6
	l114.7-8.7V306l-80.1,17.2c-5-24.2-5.6-41.7,22.1-65.9c-21.7-3.3-43.2-5.9-64.7-7c1.5-4.7,2.4-9.6,2.6-14.7v0
	c0.3-7.3-0.8-14.3-2.8-20.8c33.3-10.2,64.5-23.6,93.9-39.8l-94.4-56c37.8-26.4,78.3-37.7,123.4-49.1V20.3h-70.7
	C404.2,60,356.5,96.9,296.9,132.4c38.7,3.5,133.4,27.4,62.6,61.1c-9.1-10.9-21.5-18.8-34.9-22.5c-13.7-3.8-28.9-3.1-42.4,3.9
	c-8.8,4.5-16.7,11.8-23.1,21.5c-6.4-9.8-14.3-17-23.1-21.5c-6.8-3.5-13.9-5.4-21.1-6c-7.2-0.6-14.4,0.2-21.3,2.1
	c-16,4.4-30.6,14.9-39.8,29.2l-36.3-17.4c29.3-43.4,61.6-71.5,96.9-85.2c-35.4-27.6-58.1-45.9-73.2-77.3L84.6,20.3L84.6,20.3z
	 M209.8,187.3c1.2,0,2.5,0,3.7,0.1c4.9,0.4,9.6,1.7,14.1,4c9,4.6,17.2,13.4,22.9,29l8.8,24.5l8.8-24.5c5.6-15.7,13.9-24.4,22.9-29
	c9-4.6,19-5.2,28.9-2.5c19.7,5.4,36.7,23.9,35.8,45.9c-0.4,10.1-4.6,18.8-12,27.7c-7.4,8.9-17.9,17.5-29.4,26.3
	c-18.9,14.4-40.6,29.2-54.9,49.3c-14.4-20.1-36.1-34.9-54.9-49.3c-11.5-8.8-22-17.4-29.4-26.3c-7.4-8.9-11.6-17.5-12-27.7
	c-0.8-22,16.2-40.5,35.8-45.9C202.4,187.9,206.1,187.4,209.8,187.3L209.8,187.3z"/>
</svg>
