<?xml version="1.0" encoding="utf-8"?>
<!-- Generator: Adobe Illustrator 23.0.3, SVG Export Plug-In . SVG Version: 6.00 Build 0)  -->
<svg version="1.1" id="Layer_1" xmlns="http://www.w3.org/2000/svg" xmlns:xlink="http://www.w3.org/1999/xlink" x="0px" y="0px"
	 viewBox="0 0 512 512" style="enable-background:new 0 0 512 512;" xml:space="preserve">
<style type="text/css">
	.st0{fill:#FFFFFF;}
</style>
<path class="st0" d="M364.7,17.1l7.2,27l-58.2,14.6c3.3,5.7,6.2,11.4,8.6,17.1l54.4-13.7l7.6,28.3l78.5-60.4L364.7,17.1L364.7,17.1z
	 M234.2,24.3c-0.9,0-1.8,0-2.7,0c-5.2,0.2-10.2,1.1-14.6,2.9c0.1,0.1-1.3,1.3-4.5,3.1c-13.9,8-22.3,23.7-23.5,42l30.8-8.3
	c5.4-1.4,10.5-2.1,15.3-2c4.8,0.1,9.2,1,13.1,2.6c7.9,3.2,13.9,9.6,15.9,17.3c2.1,7.7,0.2,16.2-5.1,23c-5.2,6.8-13.5,11.9-24.3,14.8
	l-28.7,7.7c9.1,12.4,20.7,21.4,32.8,26.8l17.1,7.6l-16.4,9.1c-13,7.2-20.9,17.8-25.7,31.8c-4.8,14.1-6.2,31.5-5.1,50.7
	c2.1,35.3,12.6,75.6,22,110.8l33.2-9l11-3l0.8,11.4l8.5,128.8h100.8l9.2-165.5l0.4-6.8l6.6-1.8l36.4-9.7
	c-9.6-37-19.3-81.3-35.8-114.9c-8.9-18.2-19.7-32.9-32.7-42c-13-9.1-28.3-13.1-49-9.4l-16.1,2.9l5.8-15.3
	c6.4-17.2,1.3-40.2-13.7-64.8c-15.1-24.8-38.1-39.7-59-40.8C235.9,24.4,235,24.3,234.2,24.3L234.2,24.3z M234.5,80.9
	c-2.7-0.1-6,0.3-9.9,1.3l-103.8,27.9L87.6,91.3l-71.9,19.3l46.5,26.8l-26.8,46.5l71.3-19.1l20.4-35.3l102.7-27.6
	c7.8-2.1,12.3-5.4,14.4-8.2c2.2-2.8,2.3-4.9,1.8-6.7c-0.5-1.7-1.7-3.5-5-4.9C239.4,81.5,237.2,81,234.5,80.9L234.5,80.9z"/>
</svg>
