<?xml version="1.0" encoding="utf-8"?>
<!-- Generator: Adobe Illustrator 23.0.3, SVG Export Plug-In . SVG Version: 6.00 Build 0)  -->
<svg version="1.1" id="Layer_1" xmlns="http://www.w3.org/2000/svg" xmlns:xlink="http://www.w3.org/1999/xlink" x="0px" y="0px"
	 viewBox="0 0 512 512" style="enable-background:new 0 0 512 512;" xml:space="preserve">
<style type="text/css">
	.st0{fill:#FFFFFF;}
</style>
<path class="st0" d="M492.1,21.5L353.4,43.3l43.2,19.4L360.5,85c5.9,6.7,10.8,14.5,14.3,23.3l37.8-23.4l-2.1,50.9L492.1,21.5
	L492.1,21.5z M301.1,76.4c-1.6,0-3.2,0-4.8,0.2c-19.3,1.4-38.5,12.5-51.5,37l-7.9,14.9l-8.4-14.6c-17.1-29.5-47.5-40.2-73.2-35.2
	c-25.7,5-46.3,24.4-45.2,61c0.7,23.5,12.3,41.7,29.1,59.3l15.9-9.9c7.1-4.4,14.4-6.5,21.2-6.3c2.3,0.1,4.5,0.4,6.6,0.9
	c8.5,2.2,15,8.2,18.7,15.3c7.4,14.3,3.9,34.7-13.3,45.3l-15.2,9.4c15.4,65.6-25.3,99.9-25.3,135.7c0,20.2,17.7,35,34.9,35
	c17.5,0,34.2-13.9,34.2-33c0-37.5-43-81-17.1-137.2c13.9,13.5,27,28.6,36.9,46.6c6.9-11.8,15.1-22.3,24-31.8
	c26.6,31.9-6.1,66.6-6.1,93c0,13.4,11.6,23.1,23.9,23.1c12,0,24.4-10.4,24.4-24.5c0-27.5-40.8-63.7-1.7-128.3c2.4-2,4.8-3.9,7.1-5.9
	c15,21.7-6.3,45.1-6.3,63c0,9.5,8.2,16.3,16.9,16.3c8.5,0,17.2-7.3,17.2-17.3c0-19.7-29.5-40.7-0.2-87.2c4.8-5,9-10.1,12.7-15.3
	c9.2-13.3,14.4-27.5,13.9-45.7c-1.1-34.1-22.3-55.8-47.3-62C310.8,77.1,305.9,76.5,301.1,76.4L301.1,76.4z M174.8,201.5
	c-2.5,0.1-5.7,1.1-9.7,3.5L19.9,295v31.8l158.6-98.3c9.3-5.8,9.7-14.7,6.5-20.8c-1.6-3.1-3.9-5.1-6.8-5.8c-0.7-0.2-1.5-0.3-2.4-0.3
	C175.4,201.5,175.1,201.5,174.8,201.5L174.8,201.5z M322.1,368.5c-2.1,29.3-18.3,38.3-18.3,54.6c0,8.1,8.9,15.3,18.3,15.3
	c9.2,0,18.6-7.2,18.6-15.7C340.8,405.6,324.8,397.8,322.1,368.5L322.1,368.5z M240.8,386.3c-4,45-28.5,56.9-28.5,83
	c0,13.1,14.5,24.1,28.5,24.1c14.4,0,28-11.1,28-23.5C268.8,444.9,244,431.2,240.8,386.3z"/>
</svg>
