<?xml version="1.0" encoding="utf-8"?>
<!-- Generator: Adobe Illustrator 23.0.3, SVG Export Plug-In . SVG Version: 6.00 Build 0)  -->
<svg version="1.1" id="Layer_1" xmlns="http://www.w3.org/2000/svg" xmlns:xlink="http://www.w3.org/1999/xlink" x="0px" y="0px"
	 viewBox="0 0 512 512" style="enable-background:new 0 0 512 512;" xml:space="preserve">
<style type="text/css">
	.st0{fill:#FFFFFF;}
</style>
<path class="st0" d="M373,24.9c-8.7,0.2-17.8,3.6-26.7,10.3c-12.6,9.4-24.1,25.2-30.5,44.8c-6.4,19.6-6.5,39.1-1.9,54.2
	c4.6,15,13.4,25.2,25,29c11.6,3.8,24.7,0.7,37.3-8.7c12.6-9.4,24.1-25.2,30.5-44.9c6.4-19.6,6.5-39.1,1.9-54.2
	c-4.6-15-13.4-25.2-25-29c-2.9-0.9-5.9-1.5-8.9-1.6C374.1,24.9,373.5,24.9,373,24.9L373,24.9z M217.3,94.7
	c-21.7,0-43.4,2.2-65.1,7.1c-24.9,29.8-43.8,60.3-52.9,98.5l37.4,17.8c8.3-30.7,21.5-53.8,43.4-77c22.7-7.8,45.4-6.2,68.1,1.5
	c-74.2,65.1-51.2,120.7-80.3,226.5c-42.7,17.9-85.1,20.5-123.3,0L23,415.6c59.4,27.1,125.7,29.8,190.8,0
	c20.4-43.4,27.2-88.6,25-132.9c56.5,71.9,84.3,115.5,99.9,215.8h57.9c-3.1-14.7-6.2-28.4-9.3-41.2
	c-22.5-92.1-47.3-139.6-100.2-198.4c9.7-36.1,22.1-59.7,52.4-74.3c11.2,19.8,30,36.7,51.1,48.9l97.4,1.6l0.5-41L402,192
	c-8-5.6-14.9-11.7-20.8-18.3c-14.9,9.1-32,12.6-48.2,7.3c-18.4-6-31.1-22-37.1-41.3c-3.5-11.4-4.7-24.1-3.7-37.3
	C267.3,97.6,242.3,94.7,217.3,94.7L217.3,94.7z"/>
</svg>
