<?xml version="1.0" encoding="utf-8"?>
<!-- Generator: Adobe Illustrator 23.0.3, SVG Export Plug-In . SVG Version: 6.00 Build 0)  -->
<svg version="1.1" id="Layer_1" xmlns="http://www.w3.org/2000/svg" xmlns:xlink="http://www.w3.org/1999/xlink" x="0px" y="0px"
	 viewBox="0 0 512 512" style="enable-background:new 0 0 512 512;" xml:space="preserve">
<style type="text/css">
	.st0{fill:#FFFFFF;}
</style>
<path class="st0" d="M27.5,25.7c9.5,37.1,24.5,74.5,41.6,112.2c17.5-31.6,41.2-53,71.6-70.5C102.8,50.6,65.1,36.3,27.5,25.7z
	 M483.7,25.7c-37.6,10.6-75.3,24.9-113.2,41.7c30.4,17.5,54.1,38.9,71.6,70.5C459.3,100.2,474.2,62.8,483.7,25.7L483.7,25.7z
	 M116.6,107c-3.6,3.2-7,6.6-10.2,10.1l125.7,125.7l10.3-10.2C242.4,232.6,116.6,107,116.6,107z M394.6,107L28,473.1l10.5,10.3
	l366.2-366.2C401.6,113.6,398.2,110.2,394.6,107L394.6,107z M255.6,133.8c-24.3,0-47,7.2-66,19.7l13.5,13.5
	c15.3-9.2,33.3-14.5,52.5-14.5c19.2,0,37.2,5.3,52.5,14.5l13.5-13.5C302.6,141.1,279.9,133.8,255.6,133.8L255.6,133.8z M255.6,178.9
	c-11.8,0-23,2.7-33,7.6l14.2,14.2c5.9-2,12.2-3.1,18.7-3.1c6.6,0,12.8,1.1,18.7,3.1l14.3-14.2C278.6,181.6,267.4,178.9,255.6,178.9
	L255.6,178.9z M357.9,190.5L344.3,204c8.5,14.9,13.3,32.1,13.3,50.5c0,19.2-5.3,37.1-14.4,52.4l13.5,13.5
	c12.4-19,19.6-41.6,19.6-65.9C376.3,231,369.6,209.1,357.9,190.5L357.9,190.5z M153.3,190.5c-11.7,18.6-18.4,40.5-18.4,64
	c0,24.3,7.2,46.9,19.6,65.9l13.5-13.5c-9.2-15.3-14.4-33.2-14.4-52.4c0-18.4,4.8-35.6,13.3-50.5L153.3,190.5L153.3,190.5z
	 M324.6,223.7l-14.5,14.5c1.5,5.2,2.4,10.7,2.4,16.3c0,6.5-1.1,12.8-3.1,18.7l14.3,14.2c4.8-10,7.5-21.1,7.5-32.9
	C331.2,243.6,328.9,233.1,324.6,223.7L324.6,223.7z M186.6,223.7c-4.2,9.4-6.6,19.8-6.6,30.8c0,11.8,2.7,22.9,7.5,32.9l14.3-14.2
	c-2-5.8-3.1-12.1-3.1-18.6c0-5.7,0.8-11.2,2.4-16.3L186.6,223.7L186.6,223.7z M279.1,269.3l-10.3,10.3l203.8,203.8l10.5-10.3
	L279.1,269.3L279.1,269.3z M239.2,309.1l-14.5,14.5c9.4,4.2,19.9,6.6,30.8,6.6c11,0,21.4-2.4,30.8-6.6L272,309.1
	c-5.2,1.5-10.7,2.4-16.3,2.4C249.9,311.5,244.4,310.6,239.2,309.1L239.2,309.1z M81.9,341.3l-68,68h51.6l68.1-68L81.9,341.3
	L81.9,341.3z M377.6,341.3l68.1,68h51.6l-68-68H377.6z M205.1,343.3l-13.6,13.6c18.6,11.7,40.5,18.5,64.1,18.5
	c23.5,0,45.5-6.8,64-18.4l-13.5-13.6c-14.9,8.5-32.1,13.3-50.5,13.3C237.2,356.6,220,351.7,205.1,343.3L205.1,343.3z M170.2,378.1
	l-68,68l0,51.5l68-68L170.2,378.1L170.2,378.1z M341,378.1v51.5l68,68l0-51.5L341,378.1L341,378.1z"/>
</svg>
